<mxfile host="app.diagrams.net" modified="2021-03-11T15:17:51.540Z" agent="5.0 (Windows NT 10.0; Win64; x64) AppleWebKit/537.36 (KHTML, like Gecko) Chrome/88.0.4324.190 Safari/537.36" etag="VKBipLmvVbiAA0e_oMUh" version="14.4.7" type="github">
  <diagram id="kgpKYQtTHZ0yAKxKKP6v" name="Page-1">
    <mxGraphModel dx="1888" dy="548" grid="1" gridSize="10" guides="1" tooltips="1" connect="1" arrows="1" fold="1" page="1" pageScale="1" pageWidth="850" pageHeight="1100" math="0" shadow="0">
      <root>
        <mxCell id="0" />
        <mxCell id="1" parent="0" />
        <mxCell id="AKdE4zP1HLGknf3G43tl-41" value="Telepes teleportkaput épít" style="shape=umlFrame;whiteSpace=wrap;html=1;width=130;height=40;" vertex="1" parent="1">
          <mxGeometry x="-70" y="10" width="920" height="670" as="geometry" />
        </mxCell>
        <mxCell id="AKdE4zP1HLGknf3G43tl-42" value="opt" style="shape=umlFrame;whiteSpace=wrap;html=1;" vertex="1" parent="1">
          <mxGeometry x="70" y="390" width="730" height="230" as="geometry" />
        </mxCell>
        <mxCell id="AKdE4zP1HLGknf3G43tl-43" value="3 : EpithetoE()" style="html=1;verticalAlign=bottom;endArrow=block;entryX=0;entryY=0;" edge="1" parent="1" source="AKdE4zP1HLGknf3G43tl-46" target="AKdE4zP1HLGknf3G43tl-48">
          <mxGeometry relative="1" as="geometry">
            <mxPoint x="180" y="270" as="sourcePoint" />
          </mxGeometry>
        </mxCell>
        <mxCell id="AKdE4zP1HLGknf3G43tl-45" value="t: Telepes" style="shape=umlLifeline;perimeter=lifelinePerimeter;container=1;collapsible=0;recursiveResize=0;rounded=0;shadow=0;strokeWidth=1;" vertex="1" parent="1">
          <mxGeometry x="130" y="30" width="100" height="640" as="geometry" />
        </mxCell>
        <mxCell id="AKdE4zP1HLGknf3G43tl-46" value="" style="html=1;points=[];perimeter=orthogonalPerimeter;" vertex="1" parent="AKdE4zP1HLGknf3G43tl-45">
          <mxGeometry x="45" y="100" width="10" height="520" as="geometry" />
        </mxCell>
        <mxCell id="AKdE4zP1HLGknf3G43tl-47" value="e: TeleportEpito" style="shape=umlLifeline;perimeter=lifelinePerimeter;container=1;collapsible=0;recursiveResize=0;rounded=0;shadow=0;strokeWidth=1;" vertex="1" parent="1">
          <mxGeometry x="350" y="30" width="100" height="640" as="geometry" />
        </mxCell>
        <mxCell id="AKdE4zP1HLGknf3G43tl-48" value="" style="html=1;points=[];perimeter=orthogonalPerimeter;" vertex="1" parent="AKdE4zP1HLGknf3G43tl-47">
          <mxGeometry x="45" y="260" width="10" height="30" as="geometry" />
        </mxCell>
        <mxCell id="AKdE4zP1HLGknf3G43tl-49" value="" style="points=[];perimeter=orthogonalPerimeter;rounded=0;shadow=0;strokeWidth=1;" vertex="1" parent="AKdE4zP1HLGknf3G43tl-47">
          <mxGeometry x="45" y="180" width="10" height="30" as="geometry" />
        </mxCell>
        <mxCell id="AKdE4zP1HLGknf3G43tl-50" value="" style="html=1;points=[];perimeter=orthogonalPerimeter;" vertex="1" parent="AKdE4zP1HLGknf3G43tl-47">
          <mxGeometry x="45" y="380" width="10" height="190" as="geometry" />
        </mxCell>
        <mxCell id="AKdE4zP1HLGknf3G43tl-51" value="kell" style="verticalAlign=bottom;endArrow=open;dashed=1;endSize=8;exitX=0;exitY=0.95;shadow=0;strokeWidth=1;" edge="1" parent="1" source="AKdE4zP1HLGknf3G43tl-49" target="AKdE4zP1HLGknf3G43tl-46">
          <mxGeometry relative="1" as="geometry">
            <mxPoint x="285" y="246" as="targetPoint" />
          </mxGeometry>
        </mxCell>
        <mxCell id="AKdE4zP1HLGknf3G43tl-52" value="2 : KellE(ny)" style="verticalAlign=bottom;endArrow=block;entryX=0;entryY=0;shadow=0;strokeWidth=1;" edge="1" parent="1" source="AKdE4zP1HLGknf3G43tl-46" target="AKdE4zP1HLGknf3G43tl-49">
          <mxGeometry relative="1" as="geometry">
            <mxPoint x="285" y="170" as="sourcePoint" />
            <Array as="points" />
          </mxGeometry>
        </mxCell>
        <mxCell id="AKdE4zP1HLGknf3G43tl-54" value="[epitheto &amp;amp;&amp;amp; van hely a raktarban]" style="text;html=1;strokeColor=none;fillColor=none;align=center;verticalAlign=middle;whiteSpace=wrap;rounded=0;" vertex="1" parent="1">
          <mxGeometry x="80" y="440" width="90" height="20" as="geometry" />
        </mxCell>
        <mxCell id="AKdE4zP1HLGknf3G43tl-55" value="epitheto" style="html=1;verticalAlign=bottom;endArrow=open;dashed=1;endSize=8;exitX=0;exitY=0.95;" edge="1" parent="1" source="AKdE4zP1HLGknf3G43tl-48" target="AKdE4zP1HLGknf3G43tl-46">
          <mxGeometry relative="1" as="geometry">
            <mxPoint x="180" y="289" as="targetPoint" />
          </mxGeometry>
        </mxCell>
        <mxCell id="AKdE4zP1HLGknf3G43tl-56" value="1 : TeleportEpit(e: TeleportEpito)" style="verticalAlign=bottom;startArrow=none;endArrow=block;startSize=8;shadow=0;strokeWidth=1;startFill=0;" edge="1" parent="1" source="AKdE4zP1HLGknf3G43tl-71">
          <mxGeometry x="-0.0297" relative="1" as="geometry">
            <mxPoint x="70" y="130" as="sourcePoint" />
            <mxPoint x="175" y="130" as="targetPoint" />
            <mxPoint as="offset" />
          </mxGeometry>
        </mxCell>
        <mxCell id="AKdE4zP1HLGknf3G43tl-57" value="" style="html=1;verticalAlign=bottom;endArrow=open;dashed=1;endSize=8;" edge="1" parent="1" source="AKdE4zP1HLGknf3G43tl-46" target="AKdE4zP1HLGknf3G43tl-71">
          <mxGeometry relative="1" as="geometry">
            <mxPoint x="176" y="769" as="sourcePoint" />
            <mxPoint x="30" y="650" as="targetPoint" />
            <Array as="points">
              <mxPoint x="130" y="650" />
              <mxPoint x="100" y="650" />
              <mxPoint x="70" y="650" />
            </Array>
          </mxGeometry>
        </mxCell>
        <mxCell id="AKdE4zP1HLGknf3G43tl-58" value="5 : Letrejon(a: Aszteroida)" style="html=1;verticalAlign=bottom;endArrow=block;entryX=0;entryY=0;" edge="1" parent="1" source="AKdE4zP1HLGknf3G43tl-46" target="AKdE4zP1HLGknf3G43tl-50">
          <mxGeometry relative="1" as="geometry">
            <mxPoint x="325" y="610" as="sourcePoint" />
          </mxGeometry>
        </mxCell>
        <mxCell id="AKdE4zP1HLGknf3G43tl-59" value="" style="html=1;verticalAlign=bottom;endArrow=open;dashed=1;endSize=8;exitX=0;exitY=0.95;" edge="1" parent="1" source="AKdE4zP1HLGknf3G43tl-50" target="AKdE4zP1HLGknf3G43tl-46">
          <mxGeometry relative="1" as="geometry">
            <mxPoint x="325" y="686" as="targetPoint" />
          </mxGeometry>
        </mxCell>
        <mxCell id="AKdE4zP1HLGknf3G43tl-60" value="(k1,k2): TeleportKapu[2]" style="edgeLabel;html=1;align=center;verticalAlign=middle;resizable=0;points=[];" vertex="1" connectable="0" parent="AKdE4zP1HLGknf3G43tl-59">
          <mxGeometry x="-0.2" y="-3" relative="1" as="geometry">
            <mxPoint x="-11" y="-7.5" as="offset" />
          </mxGeometry>
        </mxCell>
        <mxCell id="AKdE4zP1HLGknf3G43tl-61" value="k1:Teleportkapu" style="shape=umlLifeline;perimeter=lifelinePerimeter;whiteSpace=wrap;html=1;container=1;collapsible=0;recursiveResize=0;outlineConnect=0;" vertex="1" parent="1">
          <mxGeometry x="600" y="30" width="100" height="640" as="geometry" />
        </mxCell>
        <mxCell id="AKdE4zP1HLGknf3G43tl-62" value="" style="html=1;points=[];perimeter=orthogonalPerimeter;" vertex="1" parent="AKdE4zP1HLGknf3G43tl-61">
          <mxGeometry x="40" y="440" width="10" height="30" as="geometry" />
        </mxCell>
        <mxCell id="AKdE4zP1HLGknf3G43tl-63" value="k2:Teleportkapu" style="shape=umlLifeline;perimeter=lifelinePerimeter;whiteSpace=wrap;html=1;container=1;collapsible=0;recursiveResize=0;outlineConnect=0;" vertex="1" parent="1">
          <mxGeometry x="720" y="30" width="100" height="640" as="geometry" />
        </mxCell>
        <mxCell id="AKdE4zP1HLGknf3G43tl-64" value="" style="html=1;points=[];perimeter=orthogonalPerimeter;" vertex="1" parent="AKdE4zP1HLGknf3G43tl-63">
          <mxGeometry x="45" y="490" width="10" height="40" as="geometry" />
        </mxCell>
        <mxCell id="AKdE4zP1HLGknf3G43tl-65" value="" style="html=1;verticalAlign=bottom;endArrow=block;" edge="1" parent="1">
          <mxGeometry x="0.079" y="10" width="80" relative="1" as="geometry">
            <mxPoint x="400" y="470" as="sourcePoint" />
            <mxPoint x="640" y="470" as="targetPoint" />
            <mxPoint as="offset" />
          </mxGeometry>
        </mxCell>
        <mxCell id="AKdE4zP1HLGknf3G43tl-66" value="8. SetPar(k2)" style="html=1;verticalAlign=bottom;endArrow=block;exitX=1.1;exitY=0.611;exitDx=0;exitDy=0;exitPerimeter=0;" edge="1" parent="1" source="AKdE4zP1HLGknf3G43tl-50" target="AKdE4zP1HLGknf3G43tl-63">
          <mxGeometry x="-0.0426" y="56" width="80" relative="1" as="geometry">
            <mxPoint x="410" y="450" as="sourcePoint" />
            <mxPoint x="669.5" y="450" as="targetPoint" />
            <mxPoint as="offset" />
          </mxGeometry>
        </mxCell>
        <mxCell id="AKdE4zP1HLGknf3G43tl-67" value="9. SetPar(k1)" style="text;html=1;align=center;verticalAlign=middle;resizable=0;points=[];autosize=1;" vertex="1" parent="1">
          <mxGeometry x="537" y="500" width="90" height="20" as="geometry" />
        </mxCell>
        <mxCell id="AKdE4zP1HLGknf3G43tl-68" value="4 : Reset()" style="html=1;verticalAlign=bottom;endArrow=block;exitX=0.55;exitY=0.289;exitDx=0;exitDy=0;exitPerimeter=0;entryX=1;entryY=0.733;entryDx=0;entryDy=0;entryPerimeter=0;rounded=0;" edge="1" parent="1">
          <mxGeometry x="-0.1464" y="10" relative="1" as="geometry">
            <mxPoint x="405" y="299.9999999999999" as="sourcePoint" />
            <mxPoint x="405" y="312.3499999999999" as="targetPoint" />
            <Array as="points">
              <mxPoint x="440" y="300" />
              <mxPoint x="440" y="312" />
            </Array>
            <mxPoint as="offset" />
          </mxGeometry>
        </mxCell>
        <mxCell id="AKdE4zP1HLGknf3G43tl-69" value="" style="html=1;verticalAlign=bottom;endArrow=block;exitX=1.2;exitY=0.037;exitDx=0;exitDy=0;exitPerimeter=0;" edge="1" parent="1" source="AKdE4zP1HLGknf3G43tl-50" target="AKdE4zP1HLGknf3G43tl-61">
          <mxGeometry x="0.079" y="10" width="80" relative="1" as="geometry">
            <mxPoint x="410" y="421" as="sourcePoint" />
            <mxPoint x="651.02" y="412.01" as="targetPoint" />
            <mxPoint as="offset" />
          </mxGeometry>
        </mxCell>
        <mxCell id="AKdE4zP1HLGknf3G43tl-70" value="7. &amp;lt;&amp;lt;create&amp;gt;&amp;gt;&lt;span style=&quot;font-size: 12px ; background-color: rgb(248 , 249 , 250)&quot;&gt;Teleportkapu()&lt;/span&gt;" style="html=1;verticalAlign=bottom;endArrow=block;exitX=1;exitY=0.195;exitDx=0;exitDy=0;exitPerimeter=0;" edge="1" parent="1" source="AKdE4zP1HLGknf3G43tl-50" target="AKdE4zP1HLGknf3G43tl-63">
          <mxGeometry x="0.1102" y="5" width="80" relative="1" as="geometry">
            <mxPoint x="411" y="435" as="sourcePoint" />
            <mxPoint x="776.5" y="439" as="targetPoint" />
            <mxPoint as="offset" />
          </mxGeometry>
        </mxCell>
        <mxCell id="AKdE4zP1HLGknf3G43tl-71" value="Player" style="shape=umlLifeline;participant=umlActor;perimeter=lifelinePerimeter;whiteSpace=wrap;html=1;container=1;collapsible=0;recursiveResize=0;verticalAlign=top;spacingTop=36;outlineConnect=0;" vertex="1" parent="1">
          <mxGeometry x="-20" y="60" width="20" height="600" as="geometry" />
        </mxCell>
        <mxCell id="AKdE4zP1HLGknf3G43tl-72" value="" style="html=1;verticalAlign=bottom;endArrow=open;dashed=1;endSize=8;exitX=0.1;exitY=0.933;exitDx=0;exitDy=0;exitPerimeter=0;" edge="1" parent="1" source="AKdE4zP1HLGknf3G43tl-62" target="AKdE4zP1HLGknf3G43tl-50">
          <mxGeometry relative="1" as="geometry">
            <mxPoint x="795" y="450" as="sourcePoint" />
            <mxPoint x="410" y="498" as="targetPoint" />
          </mxGeometry>
        </mxCell>
        <mxCell id="AKdE4zP1HLGknf3G43tl-73" value="" style="html=1;verticalAlign=bottom;endArrow=open;dashed=1;endSize=8;entryX=0.53;entryY=0.825;entryDx=0;entryDy=0;entryPerimeter=0;exitX=0.3;exitY=0.967;exitDx=0;exitDy=0;exitPerimeter=0;" edge="1" parent="1" source="AKdE4zP1HLGknf3G43tl-64" target="AKdE4zP1HLGknf3G43tl-47">
          <mxGeometry relative="1" as="geometry">
            <mxPoint x="640" y="550" as="sourcePoint" />
            <mxPoint x="400" y="551.9300000000001" as="targetPoint" />
          </mxGeometry>
        </mxCell>
        <mxCell id="AKdE4zP1HLGknf3G43tl-74" value="6. &amp;lt;&amp;lt;create&amp;gt;&amp;gt; Teleportkapu()" style="text;html=1;align=center;verticalAlign=middle;resizable=0;points=[];autosize=1;" vertex="1" parent="1">
          <mxGeometry x="470" y="390" width="170" height="20" as="geometry" />
        </mxCell>
        <mxCell id="AKdE4zP1HLGknf3G43tl-75" value="" style="group" vertex="1" connectable="0" parent="1">
          <mxGeometry x="50" y="190" width="470" height="70" as="geometry" />
        </mxCell>
        <mxCell id="AKdE4zP1HLGknf3G43tl-44" value="loop" style="shape=umlFrame;whiteSpace=wrap;html=1;" vertex="1" parent="AKdE4zP1HLGknf3G43tl-75">
          <mxGeometry width="470" height="70" as="geometry" />
        </mxCell>
        <mxCell id="AKdE4zP1HLGknf3G43tl-53" value="[for all ny: Nyersanyag in rakter]" style="text;html=1;strokeColor=none;fillColor=none;align=center;verticalAlign=middle;whiteSpace=wrap;rounded=0;" vertex="1" parent="AKdE4zP1HLGknf3G43tl-75">
          <mxGeometry y="40" width="130" height="20" as="geometry" />
        </mxCell>
      </root>
    </mxGraphModel>
  </diagram>
</mxfile>
